<svg xmlns="http://www.w3.org/2000/svg" width="605" height="206" viewBox="0 0 605 206"><g fill="none" fill-rule="evenodd" stroke="#FFF" stroke-width="2.5"><path fill="#221F20" d="M573.5 145.8V88.7l28.6-28.6v57.1z"/><path fill="#D3D3D3" d="M545 88.7V60.1h57.1l-28.6 28.6z"/><path fill="#221F20" d="M516.4 145.8V88.7H545v28.5z"/><path fill="#D3D3D3" d="M573.5 117.2v28.6H545v-28.6z"/><path fill="#221F20" d="M545 174.3l-28.6 28.6v-57.1H545z"/><path fill="#526AD6" d="M545 59.6v28.6h-28.6z"/><path fill="#221F20" d="M459.3 88.2l28.5-28.6v57.1l-28.5 28.6z"/><path fill="#D3D3D3" d="M430.7 88.7V60.1h57.1l-28.5 28.6z"/><path fill="#221F20" d="M430.7 117.2l-28.5 28.6V88.7h28.5zM402.2 31.6L430.7 3v57.1l-28.5 28.6z"/><path fill="#526AD6" d="M430.7 60.1v28.6h-28.5z"/><path fill="#221F20" d="M345.1 88.2l28.5-28.6v57.1l-28.5 28.6z"/><path fill="#D3D3D3" d="M316.5 88.7V60.1h57.1l-28.5 28.6z"/><path fill="#221F20" d="M288 145.8V88.7h28.5v28.5z"/><path fill="#D3D3D3" d="M345.1 117.2v28.6h-28.6v-28.6z"/><path fill="#221F20" d="M316.5 174.3L288 202.9v-57.1h28.5z"/><path fill="#526AD6" d="M316.5 60.1v28.6H288zM316.5 116.7v28.6H288zM544.6 145.6H516l28.6-28.6z"/><path fill="#221F20" d="M195 67.5l35.5 35.4-35.5 35.5z"/><g><path fill="#D3D3D3" d="M69.5 69.5h66.4l-66.4 66.4z"/><path fill="#221F20" d="M135.9 135.9l-66.4 66.5v-66.5l66.4-66.4z"/><path fill="#E0A33B" d="M69.5 69.5v66.4H3z"/><path fill="#221F20" d="M3 69.5L69.5 3v66.5L3 135.9zM3 202.4v-66.5h66.5z"/></g></g></svg>