<svg xmlns="http://www.w3.org/2000/svg" width="1292" height="535" viewBox="0 0 1292 535"><g fill="none" fill-rule="evenodd" stroke="#FFF" stroke-width="4.812"><path fill="#221F20" d="M1228 355V239l58-58v116z"/><path fill="#D3D3D3" d="M1170 239v-58h116l-58 58z"/><path fill="#221F20" d="M1112 355V239h58v58z"/><path fill="#D3D3D3" d="M1228 297v58h-58v-58z"/><path fill="#221F20" d="M1170 413l-58 58V355h58z"/><path fill="#526AD6" d="M1170 180v58h-58z"/><path fill="#221F20" d="M996 238l58-58v116l-58 58z"/><path fill="#D3D3D3" d="M938 239v-58h116l-58 58z"/><path fill="#221F20" d="M938 297l-58 58V239h58zM880 123l58-58v116l-58 58z"/><path fill="#526AD6" d="M938 181v58h-58z"/><path fill="#221F20" d="M764 238l58-58v116l-58 58z"/><path fill="#D3D3D3" d="M706 239v-58h116l-58 58z"/><path fill="#221F20" d="M648 355V239h58v58z"/><path fill="#D3D3D3" d="M764 297v58h-58v-58z"/><path fill="#221F20" d="M706 413l-58 58V355h58z"/><path fill="#526AD6" d="M706 181v58h-58zM706 296v58h-58z"/><path fill="#221F20" d="M461 181l88 88-88 88z"/><path fill="#D3D3D3" d="M180 181h174L180 355z"/><path fill="#221F20" d="M354 355L180 529V355l174-174z"/><path fill="#E0A33B" d="M180 181v174H6z"/><path fill="#221F20" d="M6 180L180 6v174L6 354zM6 529V355h174z"/><path fill="#526AD6" d="M1170 354h-58l58-58z"/></g></svg>